<svg xmlns="http://www.w3.org/2000/svg" width="65" height="52"><path fill-rule="evenodd" fill="#FE3E57" d="M63.25 39.875c-.967 0-1.75-.777-1.75-1.735 0-.957.783-1.734 1.75-1.734.966 0 1.75.777 1.75 1.734 0 .958-.784 1.735-1.75 1.735zm0-12.156c-.967 0-1.75-.77-1.75-1.719 0-.949.783-1.719 1.75-1.719.966 0 1.75.77 1.75 1.719 0 .949-.784 1.719-1.75 1.719zm0-12.125c-.967 0-1.75-.777-1.75-1.735 0-.958.783-1.734 1.75-1.734.966 0 1.75.776 1.75 1.734s-.784 1.735-1.75 1.735zm0-12.126c-.967 0-1.75-.776-1.75-1.734S62.283 0 63.25 0C64.216 0 65 .776 65 1.734s-.784 1.734-1.75 1.734zM50.953 52c-.975 0-1.766-.777-1.766-1.735 0-.957.791-1.734 1.766-1.734s1.766.777 1.766 1.734c0 .958-.791 1.735-1.766 1.735zm0-12.125c-.975 0-1.766-.777-1.766-1.735 0-.957.791-1.734 1.766-1.734s1.766.777 1.766 1.734c0 .958-.791 1.735-1.766 1.735zm0-12.156c-.975 0-1.766-.77-1.766-1.719 0-.949.791-1.719 1.766-1.719s1.766.77 1.766 1.719c0 .949-.791 1.719-1.766 1.719zm0-12.125c-.975 0-1.766-.777-1.766-1.735 0-.958.791-1.734 1.766-1.734s1.766.776 1.766 1.734-.791 1.735-1.766 1.735zm0-12.126c-.975 0-1.766-.776-1.766-1.734S49.978 0 50.953 0s1.766.776 1.766 1.734-.791 1.734-1.766 1.734zM38.656 52c-.966 0-1.75-.777-1.75-1.735 0-.957.784-1.734 1.75-1.734.967 0 1.75.777 1.75 1.734 0 .958-.783 1.735-1.75 1.735zm0-12.125c-.966 0-1.75-.777-1.75-1.735 0-.957.784-1.734 1.75-1.734.967 0 1.75.777 1.75 1.734 0 .958-.783 1.735-1.75 1.735zm0-12.156c-.966 0-1.75-.77-1.75-1.719 0-.949.784-1.719 1.75-1.719.967 0 1.75.77 1.75 1.719 0 .949-.783 1.719-1.75 1.719zm0-12.125c-.966 0-1.75-.777-1.75-1.735 0-.958.784-1.734 1.75-1.734.967 0 1.75.776 1.75 1.734s-.783 1.735-1.75 1.735zm0-12.126c-.966 0-1.75-.776-1.75-1.734S37.69 0 38.656 0c.967 0 1.75.776 1.75 1.734s-.783 1.734-1.75 1.734zM26.344 52c-.967 0-1.75-.777-1.75-1.735 0-.957.783-1.734 1.75-1.734.966 0 1.75.777 1.75 1.734 0 .958-.784 1.735-1.75 1.735zm0-12.125c-.967 0-1.75-.777-1.75-1.735 0-.957.783-1.734 1.75-1.734.966 0 1.75.777 1.75 1.734 0 .958-.784 1.735-1.75 1.735zm0-12.156c-.967 0-1.75-.77-1.75-1.719 0-.949.783-1.719 1.75-1.719.966 0 1.75.77 1.75 1.719 0 .949-.784 1.719-1.75 1.719zm0-12.125c-.967 0-1.75-.777-1.75-1.735 0-.958.783-1.734 1.75-1.734.966 0 1.75.776 1.75 1.734s-.784 1.735-1.75 1.735zm0-12.126c-.967 0-1.75-.776-1.75-1.734S25.377 0 26.344 0c.966 0 1.75.776 1.75 1.734s-.784 1.734-1.75 1.734zM14.047 52c-.975 0-1.766-.777-1.766-1.735 0-.957.791-1.734 1.766-1.734s1.765.777 1.765 1.734c0 .958-.79 1.735-1.765 1.735zm0-12.125c-.975 0-1.766-.777-1.766-1.735 0-.957.791-1.734 1.766-1.734s1.765.777 1.765 1.734c0 .958-.79 1.735-1.765 1.735zm0-12.156c-.975 0-1.766-.77-1.766-1.719 0-.949.791-1.719 1.766-1.719s1.765.77 1.765 1.719c0 .949-.79 1.719-1.765 1.719zm0-12.125c-.975 0-1.766-.777-1.766-1.735 0-.958.791-1.734 1.766-1.734s1.765.776 1.765 1.734-.79 1.735-1.765 1.735zm0-12.126c-.975 0-1.766-.776-1.766-1.734S13.072 0 14.047 0s1.765.776 1.765 1.734-.79 1.734-1.765 1.734zM1.75 52C.783 52 0 51.223 0 50.265c0-.957.783-1.734 1.75-1.734.966 0 1.75.777 1.75 1.734C3.5 51.223 2.716 52 1.75 52zm0-12.125c-.967 0-1.75-.777-1.75-1.735 0-.957.783-1.734 1.75-1.734.966 0 1.75.777 1.75 1.734 0 .958-.784 1.735-1.75 1.735zm0-12.156C.783 27.719 0 26.949 0 26c0-.949.783-1.719 1.75-1.719.966 0 1.75.77 1.75 1.719 0 .949-.784 1.719-1.75 1.719zm0-12.125c-.967 0-1.75-.777-1.75-1.735 0-.958.783-1.734 1.75-1.734.966 0 1.75.776 1.75 1.734s-.784 1.735-1.75 1.735zm0-12.126C.783 3.468 0 2.692 0 1.734S.783 0 1.75 0C2.716 0 3.5.776 3.5 1.734s-.784 1.734-1.75 1.734zm61.5 45.063c.966 0 1.75.777 1.75 1.734 0 .958-.784 1.735-1.75 1.735-.967 0-1.75-.777-1.75-1.735 0-.957.783-1.734 1.75-1.734z"/></svg>