<svg xmlns="http://www.w3.org/2000/svg" width="120" height="121"><path fill-rule="evenodd" fill="#FFB534" d="M119.859 64.67a.588.588 0 01-.585.551l-.041-.001a.592.592 0 01-.546-.631 60.73 60.73 0 00.023-7.847.59.59 0 01.549-.627.581.581 0 01.622.554 61.755 61.755 0 01-.022 8.001zm-.883-11.498a.589.589 0 01-.658-.509 60.508 60.508 0 00-.671-4.043.592.592 0 01.458-.698.586.586 0 01.692.462 60.38 60.38 0 01.684 4.124.59.59 0 01-.505.664zm-1.555-8.125a.588.588 0 01-.722-.412 58.9 58.9 0 00-1.22-3.91.587.587 0 111.107-.395c.46 1.312.878 2.654 1.245 3.989a.593.593 0 01-.41.728zm-.09 31.23a.592.592 0 01.405.73 59.459 59.459 0 01-1.268 3.982.588.588 0 01-.751.356.592.592 0 01-.353-.757c.456-1.277.874-2.59 1.243-3.903a.586.586 0 01.724-.408zm-2.565-39.054a.59.59 0 01-.772-.308 58.892 58.892 0 00-1.743-3.698.594.594 0 01.251-.798.585.585 0 01.791.253 61.038 61.038 0 011.779 3.773.594.594 0 01-.306.778zm-.139 46.872c.296.133.43.482.3.781a60.486 60.486 0 01-1.806 3.769.588.588 0 01-.792.248.594.594 0 01-.246-.8 60.338 60.338 0 001.77-3.694.587.587 0 01.774-.304zm-3.565-54.249a.583.583 0 01-.806-.197 60.313 60.313 0 00-2.235-3.423.596.596 0 01.139-.825.583.583 0 01.818.141 60.181 60.181 0 012.28 3.49.595.595 0 01-.196.814zm-3.947 35.373c-.017 0-.034 0-.051-.002a.59.59 0 01-.534-.64 48.597 48.597 0 00.149-5.591.59.59 0 01.568-.61.577.577 0 01.605.573 49.335 49.335 0 01-.153 5.73.587.587 0 01-.584.54zm-.084-9.792a.59.59 0 01-.652-.517 48.015 48.015 0 00-.65-4.035.587.587 0 111.149-.241c.28 1.358.504 2.75.667 4.136a.59.59 0 01-.514.657zm-1.018-32.243a.586.586 0 01-.455-.217 60.741 60.741 0 00-2.68-3.083.594.594 0 01.025-.836.585.585 0 01.83.026 61.3 61.3 0 012.734 3.144.593.593 0 01-.454.966zm-5.621-6.031a.585.585 0 01-.399-.158 59.124 59.124 0 00-3.076-2.684.595.595 0 01-.088-.832.584.584 0 01.825-.089c1.07.87 2.126 1.791 3.137 2.737a.595.595 0 01.031.836.583.583 0 01-.43.19zm-2.1 15.349a.588.588 0 01-.821-.122 47.867 47.867 0 00-2.561-3.17.593.593 0 01.049-.835.582.582 0 01.828.049 49.03 49.03 0 012.625 3.249.596.596 0 01-.12.829zm-2.627 22.627a.59.59 0 01-.581.677.589.589 0 01-.581-.504 35.332 35.332 0 00-.821-3.985.591.591 0 01.414-.725.585.585 0 01.719.417c.361 1.351.647 2.736.85 4.12zm-1.664-43.176a.575.575 0 01-.336-.107 59.512 59.512 0 00-3.412-2.233.594.594 0 01-.201-.812.582.582 0 01.805-.202 59.475 59.475 0 013.481 2.278c.265.187.33.556.144.824a.585.585 0 01-.481.252zm-1.085 14.298a.582.582 0 01-.83.024 46.401 46.401 0 00-3.064-2.68.595.595 0 01-.094-.832.583.583 0 01.824-.095 48.186 48.186 0 013.141 2.747.594.594 0 01.023.836zM86.961 7.688a.566.566 0 01-.267-.065 59.025 59.025 0 00-3.687-1.737.593.593 0 01-.31-.776.585.585 0 01.77-.313 59.151 59.151 0 013.761 1.773.594.594 0 01.256.795.587.587 0 01-.523.323zm-.573 12.517c.27.181.344.548.166.82a.586.586 0 01-.814.167 46.698 46.698 0 00-3.476-2.107.595.595 0 01-.236-.803.587.587 0 01.797-.237 48.158 48.158 0 013.563 2.16zm-2.345 13.987a.58.58 0 01-.829.048 35.539 35.539 0 00-3.163-2.533.593.593 0 01-.142-.823.584.584 0 01.818-.144 36.602 36.602 0 013.268 2.617.594.594 0 01.048.835zM79.4 4.445a.583.583 0 01-.192-.033 58.176 58.176 0 00-3.886-1.203.593.593 0 01.305-1.143 59.93 59.93 0 013.964 1.227.593.593 0 01-.191 1.152zm-4.196 10.256c1.312.443 2.618.948 3.883 1.504.297.131.433.48.304.779a.588.588 0 01-.773.306 46.039 46.039 0 00-3.786-1.466.593.593 0 01-.371-.749.589.589 0 01.743-.374zm2.212 14.622a.586.586 0 01-.796.237 34.636 34.636 0 00-3.655-1.731.594.594 0 01-.326-.77.584.584 0 01.763-.329 36.014 36.014 0 013.779 1.791c.284.155.39.515.235.802zm-5.941-27.03a.548.548 0 01-.113-.011 59.266 59.266 0 00-4.015-.648.589.589 0 01-.509-.66.587.587 0 01.655-.514c1.365.172 2.743.395 4.094.661a.59.59 0 01.463.694.588.588 0 01-.575.478zm-.267 11.253a.592.592 0 01-.274 1.15 46.236 46.236 0 00-3.98-.78.591.591 0 01.174-1.171c1.367.206 2.739.476 4.08.801zM69.855 26.12a.587.587 0 01-.72.416 34.79 34.79 0 00-3.951-.834.59.59 0 01.174-1.17c1.373.207 2.748.497 4.085.862.313.085.497.41.412.726zM63.331 1.268l-.033-.001a59.285 59.285 0 00-4.065-.087h-.008a.59.59 0 01-.587-.585.59.59 0 01.58-.599 60.262 60.262 0 014.145.09.589.589 0 01.553.623.589.589 0 01-.585.559zm-.337 11.038a.59.59 0 01.55.627.59.59 0 01-.586.556l-.036-.001a47.314 47.314 0 00-4.055-.078.6.6 0 01-.601-.578.59.59 0 01.573-.605 48.415 48.415 0 014.155.079zm-1.791 11.846a.59.59 0 01.566.612.585.585 0 01-.605.571c-.394-.013-.771-.008-1.186-.02a35.24 35.24 0 00-2.9.119.59.59 0 01-.585-.544.59.59 0 01.538-.637 35.773 35.773 0 012.947-.121c.424-.009.818.006 1.225.02zM55.17 1.371c-1.348.11-2.707.269-4.038.472a.588.588 0 01-.668-.497.592.592 0 01.493-.674 59.496 59.496 0 014.118-.48.591.591 0 01.095 1.179zm-.477 11.133a.591.591 0 01.129 1.177 46.678 46.678 0 00-4.008.623.587.587 0 01-.69-.465.59.59 0 01.461-.696 48.165 48.165 0 014.108-.639zM53.589 25.3a.59.59 0 01-.461.695 34.55 34.55 0 00-3.905 1.027.588.588 0 01-.74-.381.593.593 0 01.378-.745 35.516 35.516 0 014.038-1.061.589.589 0 01.69.465zM47.136 2.595a57.59 57.59 0 00-3.935 1.03.588.588 0 01-.73-.399.593.593 0 01.395-.736 59.477 59.477 0 014.014-1.05.592.592 0 01.256 1.155zm-.589 11.545a.593.593 0 01.329 1.137 45.7 45.7 0 00-3.838 1.316.585.585 0 01-.76-.337.592.592 0 01.333-.766 47.818 47.818 0 013.936-1.35zm-.797 13.575a.594.594 0 01-.288.785 34.54 34.54 0 00-3.564 1.907.583.583 0 01-.807-.199.594.594 0 01.197-.812 36.098 36.098 0 013.684-1.973.587.587 0 01.778.292zM39.346 4.929a57.615 57.615 0 00-3.75 1.568.586.586 0 01-.778-.293.595.595 0 01.291-.784 59.496 59.496 0 013.826-1.6.584.584 0 01.755.347.593.593 0 01-.344.762zm-.669 26.957a.596.596 0 01-.103.831 35.233 35.233 0 00-3.037 2.681.583.583 0 01-.83-.007.595.595 0 01.006-.837 36.633 36.633 0 013.14-2.771.584.584 0 01.824.103zm-2.331 54.478a.594.594 0 01-.397 1.027.582.582 0 01-.398-.157 36.463 36.463 0 01-2.9-3.024.594.594 0 01.061-.834.582.582 0 01.828.063 35.696 35.696 0 002.806 2.925zm-5.874-44.64a.583.583 0 01-.809.184.594.594 0 01-.183-.816 36.356 36.356 0 012.43-3.421.583.583 0 01.825-.089.595.595 0 01.089.832 35.26 35.26 0 00-2.352 3.31zm-1.233-16.687a.582.582 0 01-.828-.055.595.595 0 01.055-.835 47.985 47.985 0 013.244-2.621.583.583 0 01.82.127.594.594 0 01-.127.827 47.307 47.307 0 00-3.164 2.557zm2.723-16.712a58.516 58.516 0 00-3.503 2.077.585.585 0 01-.81-.182.595.595 0 01.18-.817 61.19 61.19 0 013.572-2.119.585.585 0 01.796.238.595.595 0 01-.235.803zm-3.721 36.171a.595.595 0 01.275.79 35.302 35.302 0 00-1.534 3.767.588.588 0 01-.745.367.592.592 0 01-.364-.752c.45-1.32.983-2.631 1.585-3.895a.583.583 0 01.783-.277zm-4.618-13.568a.584.584 0 01-.825.089.597.597 0 01-.089-.833 49.385 49.385 0 012.749-3.144.583.583 0 01.83-.016c.234.226.241.6.017.836a47.283 47.283 0 00-2.682 3.068zM21.92 15.263a.583.583 0 01-.827-.068.594.594 0 01.067-.833c1.05-.9 2.144-1.773 3.251-2.595a.582.582 0 01.82.124.594.594 0 01-.123.827 59.309 59.309 0 00-3.188 2.545zm-.707 18.955a47.682 47.682 0 00-2.117 3.488.587.587 0 11-1.027-.574 48.813 48.813 0 012.171-3.575.585.585 0 01.815-.16c.269.182.34.55.158.821zm-5.112-13.234a.586.586 0 01-.829.047.594.594 0 01-.047-.835 60.527 60.527 0 012.868-3.02.584.584 0 01.83.01.595.595 0 01-.01.836 59.957 59.957 0 00-2.812 2.962zm.888 19.601a.595.595 0 01.298.782 46.954 46.954 0 00-1.486 3.805.588.588 0 01-.746.368.594.594 0 01-.364-.752 48.481 48.481 0 011.523-3.903.587.587 0 01.775-.3zm-2.337 8.507a47.402 47.402 0 00-.806 4.006.589.589 0 01-.671.492.59.59 0 01-.488-.676 49.02 49.02 0 01.825-4.108.587.587 0 111.14.286zm-3.539-21.634a.587.587 0 01-.814.162.594.594 0 01-.16-.821 60.702 60.702 0 012.43-3.39.583.583 0 01.824-.104c.256.2.303.572.104.83a59.08 59.08 0 00-2.384 3.323zm-.208 65.756a60.314 60.314 0 002.361 3.337.593.593 0 01-.465.952.586.586 0 01-.467-.232 62.137 62.137 0 01-2.407-3.402.596.596 0 01.165-.821.584.584 0 01.813.166zm-3.85-58.649a.584.584 0 01-.784.273.594.594 0 01-.271-.791 61.048 61.048 0 011.944-3.697.586.586 0 01.802-.218.594.594 0 01.216.808 59.845 59.845 0 00-1.907 3.625zm-.157 51.528a60.513 60.513 0 001.882 3.631.593.593 0 01-.51.883.583.583 0 01-.511-.3 60.551 60.551 0 01-1.919-3.702.595.595 0 01.275-.79.584.584 0 01.783.278zM4.012 42.172a.588.588 0 01-.739.38.592.592 0 01-.378-.745 61.556 61.556 0 011.418-3.935.586.586 0 111.089.442 59.978 59.978 0 00-1.39 3.858zm-1.119 3.941a59.19 59.19 0 00-.845 4.009.588.588 0 11-1.156-.206c.239-1.368.529-2.743.861-4.09a.583.583 0 01.711-.43.592.592 0 01.429.717zM1.481 54.18a61.68 61.68 0 00-.289 4.089.588.588 0 01-.585.57l-.023-.001a.588.588 0 01-.564-.613c.051-1.39.149-2.793.294-4.169a.591.591 0 01.645-.527.592.592 0 01.522.651zm-.906 7.616a.585.585 0 01.605.573c.042 1.359.131 2.735.265 4.09a.591.591 0 01-.525.648c-.02.002-.04.002-.059.002a.589.589 0 01-.584-.532 61.307 61.307 0 01-.27-4.172.589.589 0 01.568-.609zm.736 8.241a.586.586 0 01.677.484 60.57 60.57 0 00.821 4.014.592.592 0 01-.57.731.586.586 0 01-.57-.452 60.45 60.45 0 01-.838-4.094.592.592 0 01.48-.683zm1.857 8.06a.588.588 0 01.738.384c.41 1.3.869 2.599 1.366 3.861a.593.593 0 01-.546.811.59.59 0 01-.546-.374 61.046 61.046 0 01-1.393-3.938.594.594 0 01.381-.744zm9.534-16.249h-.009a.59.59 0 01-.587-.582 49.542 49.542 0 01.113-4.188c.022-.327.3-.57.625-.55a.59.59 0 01.545.632 48.736 48.736 0 00-.109 4.087.59.59 0 01-.578.601zm.248 7.746a49.355 49.355 0 01-.601-4.145.592.592 0 01.525-.65.59.59 0 01.643.528c.138 1.356.335 2.717.586 4.046a.591.591 0 01-.577.702.589.589 0 01-.576-.481zm1.361 3.348a.592.592 0 01.725.409 47.152 47.152 0 001.274 3.88.594.594 0 01-.549.803.588.588 0 01-.548-.382 48.29 48.29 0 01-1.306-3.979.593.593 0 01.404-.731zm1.538 26.774a60.397 60.397 0 002.793 2.979c.231.23.233.605.005.837a.584.584 0 01-.83.005 61.428 61.428 0 01-2.849-3.038.597.597 0 01.052-.836.585.585 0 01.829.053zm1.282-19.007a.585.585 0 01.784.275 47.546 47.546 0 001.924 3.598.594.594 0 01-.204.811.586.586 0 01-.805-.205 49.01 49.01 0 01-1.972-3.689.594.594 0 01.273-.79zm4.501 24.766a59.84 59.84 0 003.173 2.566c.26.196.313.567.119.828a.582.582 0 01-.821.12 60.428 60.428 0 01-3.236-2.618.594.594 0 01-.062-.834.582.582 0 01.827-.062zm3.814-53.205c.317.07.518.385.449.704a35.606 35.606 0 00-.629 4.02.589.589 0 01-.583.534l-.059-.003a.59.59 0 01-.526-.647 36.88 36.88 0 01.65-4.156.587.587 0 01.698-.452zm-.933 39.773a.583.583 0 01-.827-.062 48.634 48.634 0 01-2.575-3.291.595.595 0 01.133-.826.585.585 0 01.82.134 47.711 47.711 0 002.511 3.211.594.594 0 01-.062.834zm-.008-31.564h.009a.59.59 0 01.587.583c.02 1.354.119 2.719.294 4.058a.591.591 0 01-.583.668.588.588 0 01-.581-.514 36.944 36.944 0 01-.304-4.194.59.59 0 01.578-.601zm.934 8.209a.587.587 0 01.713.429c.329 1.314.737 2.62 1.213 3.882a.591.591 0 01-.548.802.587.587 0 01-.549-.381 36.653 36.653 0 01-1.254-4.013.592.592 0 01.425-.719zm1.914 25.501a46.824 46.824 0 003.021 2.729.594.594 0 01-.373 1.049.583.583 0 01-.372-.134 48.617 48.617 0 01-3.097-2.797.595.595 0 01-.009-.837.585.585 0 01.83-.01zm2.761-13.318a36.793 36.793 0 01-2.137-3.612.597.597 0 01.25-.799.585.585 0 01.791.252 35.638 35.638 0 002.068 3.495.593.593 0 01-.485.923.588.588 0 01-.487-.259zm-1.967 29.51a59.524 59.524 0 003.493 2.103.594.594 0 01-.284 1.11.59.59 0 01-.282-.073 61.056 61.056 0 01-3.564-2.145.596.596 0 01-.175-.818.585.585 0 01.812-.177zm5.471-11.008a46.716 46.716 0 003.442 2.163.594.594 0 01-.289 1.107.582.582 0 01-.288-.077 47.853 47.853 0 01-3.529-2.217.595.595 0 01-.153-.822.585.585 0 01.817-.154zm1.652 14.965a58.484 58.484 0 003.75 1.595.595.595 0 01.34.764.588.588 0 01-.758.342 59.8 59.8 0 01-3.826-1.627.595.595 0 01-.286-.786.584.584 0 01.78-.288zm.505-94.129a.586.586 0 01-.807-.199.595.595 0 01.197-.813 47.895 47.895 0 013.643-2.017.584.584 0 01.786.268.594.594 0 01-.266.793 46.238 46.238 0 00-3.553 1.968zm7.312 71.747a.586.586 0 01-.8.224 36.097 36.097 0 01-3.51-2.277.594.594 0 01-.129-.826.583.583 0 01.82-.13 35.365 35.365 0 003.396 2.203.595.595 0 01.223.806zm-2.411 11.433a46.58 46.58 0 003.763 1.528.593.593 0 01-.391 1.117 47.7 47.7 0 01-3.858-1.568.593.593 0 01-.291-.783.584.584 0 01.777-.294zm2.197 13.873a58.74 58.74 0 003.929 1.053.592.592 0 01-.262 1.153 59.137 59.137 0 01-4.008-1.074.592.592 0 01.341-1.132zm7.264-21.805a.622.622 0 01-.163-.023 35.7 35.7 0 01-3.937-1.401.593.593 0 01-.313-.775.585.585 0 01.768-.317c1.237.524 2.518.98 3.808 1.355a.593.593 0 01-.163 1.161zm-1.819 10.651a46.59 46.59 0 003.967.844.592.592 0 01-.192 1.167 47.311 47.311 0 01-4.067-.865.592.592 0 01.292-1.146zm2.476 12.983c1.333.21 2.691.377 4.036.495a.59.59 0 01.533.64.588.588 0 01-.584.54c-.017 0-.034 0-.051-.002a59.878 59.878 0 01-4.116-.504.592.592 0 01.182-1.169zm7.4-22.282a35.698 35.698 0 01-4.149-.448.59.59 0 01-.483-.68.582.582 0 01.675-.487c1.32.221 2.67.367 4.014.433a.59.59 0 01.558.62.59.59 0 01-.586.563l-.029-.001zm-1.884 10.637c1.215.095 2.453.144 3.679.144l.374-.002h.004a.59.59 0 01.587.587.59.59 0 01-.583.596l-.381.002c-1.257 0-2.526-.05-3.772-.147a.591.591 0 01-.539-.636.579.579 0 01.631-.544zm2.58 12.353c1.348.026 2.718.005 4.067-.062a.582.582 0 01.615.561.591.591 0 01-.557.621 62.231 62.231 0 01-4.147.065.593.593 0 01.022-1.185zm3.476-23.023l-.039.002a.59.59 0 01-.586-.553.59.59 0 01.548-.63 35.065 35.065 0 004.006-.498.592.592 0 01.211 1.165c-1.36.25-2.753.423-4.14.514zm2.046 10.606a46.8 46.8 0 004.017-.559.592.592 0 01.211 1.164 47.627 47.627 0 01-4.173.575c-.3 0-.556-.23-.584-.536a.59.59 0 01.529-.644zm2.596 12.011a58.756 58.756 0 004.018-.624.584.584 0 01.686.471.592.592 0 01-.467.692c-1.35.258-2.729.472-4.099.637a.59.59 0 01-.652-.518.59.59 0 01.514-.658zm3.553-24.127a.588.588 0 01-.733-.392.592.592 0 01.39-.739 34.984 34.984 0 003.784-1.416.583.583 0 01.773.304.593.593 0 01-.301.779 35.871 35.871 0 01-3.913 1.464zm1.822 10.648a46.052 46.052 0 003.859-1.253.588.588 0 01.755.349.593.593 0 01-.347.76 47.525 47.525 0 01-3.956 1.286.587.587 0 01-.721-.414.592.592 0 01.41-.728zm2.608 11.951a57.9 57.9 0 003.893-1.18.587.587 0 01.745.371.593.593 0 01-.368.75 59.495 59.495 0 01-3.972 1.204.586.586 0 01-.716-.422.59.59 0 01.418-.723zm2.902-25.893a.588.588 0 01-.507-.293.594.594 0 01.21-.809 34.982 34.982 0 003.359-2.256.582.582 0 01.822.117.593.593 0 01-.116.828 36.023 36.023 0 01-3.472 2.331.57.57 0 01-.296.082zm2.083 11.101a46.635 46.635 0 003.584-1.91.585.585 0 01.803.212.593.593 0 01-.21.809 47.757 47.757 0 01-3.674 1.959.587.587 0 01-.782-.282.594.594 0 01.279-.788zm2.705 12.165a58.377 58.377 0 003.69-1.711.585.585 0 01.788.264.594.594 0 01-.26.794 60.186 60.186 0 01-3.765 1.745.585.585 0 01-.768-.318.593.593 0 01.315-.774zm4.286-16.292a47.231 47.231 0 003.204-2.506.584.584 0 01.827.069c.21.25.179.623-.068.834a48.8 48.8 0 01-3.285 2.569.584.584 0 01-.817-.141.594.594 0 01.139-.825zm2.969 12.616a58.28 58.28 0 003.423-2.208.584.584 0 01.817.15.596.596 0 01-.15.824 60.106 60.106 0 01-3.491 2.253.584.584 0 01-.804-.208.596.596 0 01.205-.811zm6.77-20.997c.249.21.283.582.075.833a48.685 48.685 0 01-2.798 3.1.586.586 0 01-.83.003.595.595 0 01-.004-.837 47.203 47.203 0 002.731-3.024.583.583 0 01.826-.075zm-2.043-22.439a.59.59 0 01.437.711 36.364 36.364 0 01-1.19 4.035.589.589 0 01-.752.355.593.593 0 01-.352-.758 35.17 35.17 0 001.151-3.902.587.587 0 01.706-.441zm-3.731-25.155a.585.585 0 01.796.238 36.496 36.496 0 011.768 3.808.592.592 0 01-.545.812.588.588 0 01-.545-.373 35.122 35.122 0 00-1.711-3.683.594.594 0 01.237-.802zm1.069 32.975c.29.146.407.501.262.794a36.578 36.578 0 01-2.081 3.648.584.584 0 01-.812.171.594.594 0 01-.17-.819 35.334 35.334 0 002.013-3.53.584.584 0 01.788-.264zm-4.378 6.99a.594.594 0 01.075.833 36.837 36.837 0 01-2.853 3.071.586.586 0 01-.83-.022.594.594 0 01.021-.836c.972-.932 1.9-1.931 2.761-2.971a.583.583 0 01.826-.075zm-.68-46.602a36.372 36.372 0 012.589 3.299.593.593 0 01-.479.931.583.583 0 01-.481-.252 35.61 35.61 0 00-2.506-3.192.595.595 0 01.048-.834.583.583 0 01.829.048zm8.488 22.411c.312-.019.595.246.605.573a37.477 37.477 0 01-.219 5.374.589.589 0 01-.65.521.591.591 0 01-.516-.655 36.278 36.278 0 00.212-5.202.59.59 0 01.568-.611zm4.283 45.504a.585.585 0 01.83.037.594.594 0 01-.037.836 60.306 60.306 0 01-3.153 2.716.586.586 0 01-.824-.094.596.596 0 01.093-.832 59.242 59.242 0 003.091-2.663zm-.893-15.929a.58.58 0 01-.335-.106.595.595 0 01-.146-.824 47.668 47.668 0 002.173-3.454.586.586 0 01.802-.218.594.594 0 01.216.808 48.385 48.385 0 01-2.228 3.541.586.586 0 01-.482.253zm1.12-53.374a.585.585 0 01.808.192 48.727 48.727 0 012.031 3.657.594.594 0 01-.524.858.586.586 0 01-.525-.326 47.98 47.98 0 00-1.98-3.567.595.595 0 01.19-.814zm3.986 41.579a.586.586 0 01.752-.355c.304.111.462.45.351.758a48.607 48.607 0 01-1.585 3.877.587.587 0 01-.78.287.595.595 0 01-.285-.786 47.639 47.639 0 001.547-3.781zm1.392 21.787a.585.585 0 01.826-.078c.25.209.284.582.077.834a61.476 61.476 0 01-2.754 3.127.584.584 0 01-.83.02.596.596 0 01-.021-.837 58.778 58.778 0 002.702-3.066zm-.588-51.399a47.41 47.41 0 00-1.336-3.86.593.593 0 01.328-.769.584.584 0 01.762.33 48.164 48.164 0 011.37 3.958.591.591 0 01-.562.762.588.588 0 01-.562-.421zm1.956 21.237a.59.59 0 01.477.684 48.552 48.552 0 01-.891 4.094.588.588 0 01-.718.42.592.592 0 01-.417-.724c.345-1.308.638-2.651.87-3.993a.587.587 0 01.679-.481zm3.375 23.505a.584.584 0 01.809-.192c.275.172.36.536.19.815a61.89 61.89 0 01-2.303 3.479.586.586 0 01-.819.136.595.595 0 01-.135-.826 59.871 59.871 0 002.258-3.412zm7.516-18.95c.276-1.333.509-2.691.694-4.038a.583.583 0 01.661-.506.59.59 0 01.501.668 60.641 60.641 0 01-.708 4.118.587.587 0 01-.694.459.592.592 0 01-.454-.701z"/></svg>