<svg xmlns="http://www.w3.org/2000/svg" width="62" height="20" viewBox="0 0 61 20"><path d="M12.324 3.605c-.648-.746-1.824-1.07-3.328-1.07H4.633a.629.629 0 00-.617.531l-1.82 11.637a.383.383 0 00.374.442h2.696l.68-4.332-.02.136a.625.625 0 01.613-.531H7.82c2.512 0 4.485-1.031 5.063-4.016l.047-.254c.16-1.113-.012-1.863-.606-2.543" fill="#003087"/><path d="M45.313 9.14c-.168 1.09-.989 1.09-1.79 1.09h-.457l.32-2.043a.259.259 0 01.25-.214h.208c.543 0 1.058 0 1.324.312.156.195.207.477.145.856m-.348-2.844h-3.016a.427.427 0 00-.418.355l-1.215 7.801c-.02.14.07.266.207.293.016 0 .028.004.043.004h1.543a.29.29 0 00.29-.25l.343-2.21a.424.424 0 01.418-.356h.957c1.988 0 3.133-.97 3.43-2.891.137-.84.008-1.5-.383-1.965-.434-.516-1.191-.781-2.2-.781" fill="#009cde"/><path d="M23.824 9.14c-.168 1.09-.988 1.09-1.789 1.09h-.457l.32-2.043a.255.255 0 01.247-.214h.207c.543 0 1.062 0 1.324.312.156.195.207.477.148.856m-.351-2.844h-3.016a.423.423 0 00-.414.355l-1.215 7.801c-.023.14.07.266.207.293.016 0 .024.004.04.004h1.44a.423.423 0 00.415-.36l.328-2.1a.42.42 0 01.418-.356h.949c1.988 0 3.133-.973 3.434-2.891.136-.84.003-1.5-.387-1.965-.43-.516-1.192-.781-2.2-.781m7 5.644c-.144.836-.796 1.391-1.628 1.391-.422 0-.754-.137-.969-.39-.21-.258-.293-.622-.227-1.024.133-.824.797-1.402 1.618-1.402.41 0 .738.136.96.398.22.262.305.625.247 1.027m2.011-2.832H31.04c-.121 0-.23.09-.25.215l-.059.41-.101-.148c-.317-.457-1.008-.61-1.703-.61-1.598 0-2.953 1.215-3.223 2.93-.137.856.055 1.668.535 2.242.442.52 1.07.743 1.82.743 1.29 0 1.997-.836 1.997-.836l-.067.406c-.02.137.07.266.211.289.012 0 .024.004.04.004h1.296a.423.423 0 00.414-.356l.781-4.988a.26.26 0 00-.207-.293c-.015-.008-.03-.008-.039-.008" fill="#003087"/><path d="M51.96 11.941c-.14.836-.796 1.391-1.624 1.391-.422 0-.758-.137-.969-.39-.215-.258-.293-.622-.226-1.024.129-.824.793-1.402 1.613-1.402.41 0 .742.136.965.398.218.262.304.625.242 1.027m2.012-2.832h-1.446a.251.251 0 00-.246.215l-.062.41-.102-.148c-.312-.457-1.008-.61-1.703-.61-1.59 0-2.953 1.215-3.223 2.93-.136.856.063 1.668.54 2.242.44.52 1.07.743 1.82.743 1.285 0 1.996-.836 1.996-.836l-.067.406c-.02.137.07.266.208.289.015 0 .027.004.039.004h1.3a.423.423 0 00.414-.356l.782-4.988a.264.264 0 00-.211-.293c-.012-.008-.028-.008-.04-.008" fill="#009cde"/><path d="M40.164 9.11h-1.45a.415.415 0 00-.343.183l-2 2.973-.848-2.86a.422.422 0 00-.402-.304H33.7a.257.257 0 00-.254.257c0 .028.004.055.016.082l1.598 4.73-1.5 2.142c-.082.109-.051.269.058.351a.24.24 0 00.149.047h1.449a.422.422 0 00.344-.18l4.824-7.027a.257.257 0 00-.063-.356.4.4 0 00-.156-.039" fill="#003087"/><path d="M55.672 6.512l-1.238 7.941c-.02.14.07.266.207.293.015 0 .027.004.043.004h1.242a.423.423 0 00.414-.36l1.222-7.796a.26.26 0 00-.21-.293c-.016 0-.024-.004-.04-.004h-1.394a.248.248 0 00-.246.215" fill="#009cde"/><path d="M12.324 3.605c-.648-.746-1.824-1.07-3.328-1.07H4.633a.629.629 0 00-.617.531l-1.82 11.637a.383.383 0 00.374.442h2.696l.68-4.332-.02.136a.625.625 0 01.613-.531H7.82c2.512 0 4.485-1.031 5.063-4.016l.047-.254c.16-1.113-.012-1.863-.606-2.543" fill="#003087"/><path d="M6.664 6.152a.55.55 0 01.54-.465h3.417c.406 0 .785.024 1.133.083.187.03.375.07.555.125.21.062.41.14.605.242.172-1.106 0-1.852-.594-2.532-.648-.746-1.824-1.07-3.328-1.07h-4.36a.629.629 0 00-.616.531l-1.82 11.637a.383.383 0 00.308.438c.02.004.043.004.062.004h2.696l.68-4.332zm0 0" fill="#003087"/><path d="M12.918 6.137c-.016.086-.031.176-.047.254-.578 2.984-2.543 4.015-5.062 4.015H6.527a.622.622 0 00-.613.535l-.652 4.192-.188 1.191c-.031.18.09.352.274.38a.115.115 0 00.05.007h2.27c.27 0 .496-.2.539-.465l.02-.121.425-2.734.024-.153a.55.55 0 01.543-.468h.34c2.199 0 3.921-.899 4.43-3.512.206-1.09.1-2-.458-2.64a2.054 2.054 0 00-.613-.481" fill="#009cde"/><path d="M12.316 5.895c-.086-.024-.18-.051-.273-.07-.094-.02-.188-.04-.29-.055a6.864 6.864 0 00-1.132-.082H7.203a.55.55 0 00-.539.464l-.73 4.657-.02.132a.625.625 0 01.613-.535H7.81c2.515 0 4.484-1.031 5.062-4.015l.047-.254a2.636 2.636 0 00-.473-.2 1.661 1.661 0 00-.129-.042" fill="#012169"/></svg>