<svg xmlns="http://www.w3.org/2000/svg" width="px" height="20" viewBox="0 0 31 20"><path d="M0 .113h31V20H0zm0 0" fill="#fff"/><path d="M.516 16.77h29.968v2.71H.516zm0 0" fill="#fcb315"/><path d="M.516.637h29.968v2.71H.516zM15.242 6.34l-1.582 7.457h-1.91l1.582-7.457zm8.035 4.812l1.008-2.8.578 2.8zm2.133 2.645h1.77L25.633 6.34h-1.63a.867.867 0 00-.812.547l-2.867 6.91h2.008l.398-1.113h2.45zm-4.984-2.438c.008-1.964-2.696-2.074-2.68-2.953.008-.27.262-.554.813-.625.273-.035 1.027-.066 1.882.332l.336-1.582a5.113 5.113 0 00-1.789-.328c-1.886 0-3.215 1.012-3.226 2.465-.012 1.074.949 1.672 1.672 2.027.746.367.996.602.992.93-.008.5-.594.719-1.145.727-.96.015-1.515-.262-1.96-.47l-.348 1.634c.449.207 1.273.386 2.125.398 2.007 0 3.32-1.004 3.328-2.555zm-7.914-5.02l-3.098 7.458H7.398L5.875 7.844c-.094-.367-.176-.5-.457-.657-.457-.25-1.215-.484-1.883-.632l.043-.215h3.254c.414 0 .785.277.879.758l.805 4.316 1.988-5.074zm0 0" fill="#0d357f"/></svg>