<svg xmlns="http://www.w3.org/2000/svg" width="px" height="20" viewBox="0 0 20 20"><path d="M19.844 10a5.902 5.902 0 01-5.907 5.906c-3.25 0-5.906-2.656-5.906-5.906 0-3.25 2.625-5.906 5.875-5.906A5.908 5.908 0 0119.844 10zm0 0" fill="#ffb600"/><path d="M13.938 4.094c3.25 0 5.906 2.656 5.906 5.906a5.902 5.902 0 01-5.907 5.906c-3.25 0-5.906-2.656-5.906-5.906" fill="#f7981d"/><path d="M13.938 4.094c3.25 0 5.906 2.656 5.906 5.906a5.902 5.902 0 01-5.907 5.906" fill="#ff8500"/><path d="M6 4.094A5.909 5.909 0 00.156 10a5.902 5.902 0 005.907 5.906c1.53 0 2.906-.594 3.968-1.531.219-.188.406-.406.594-.625H9.406a7.21 7.21 0 01-.437-.594h2.094c.124-.187.25-.406.343-.625H8.625a3.725 3.725 0 01-.25-.625h3.25a6.205 6.205 0 00.313-1.875c0-.437-.063-.844-.126-1.25H8.188c.03-.219.093-.406.156-.625h3.25a3.725 3.725 0 00-.25-.625h-2.75c.094-.218.219-.406.344-.625h2.093a2.972 2.972 0 00-.469-.625H9.406c.188-.218.375-.406.594-.593-1.031-.97-2.438-1.532-3.969-1.532 0-.062 0-.062-.031-.062zm0 0" fill="#ff5050"/><path d="M.156 10a5.902 5.902 0 005.907 5.906c1.53 0 2.906-.594 3.968-1.531.219-.188.406-.406.594-.625H9.406a7.21 7.21 0 01-.437-.594h2.094c.124-.187.25-.406.343-.625H8.625a3.725 3.725 0 01-.25-.625h3.25a6.205 6.205 0 00.313-1.875c0-.437-.063-.844-.126-1.25H8.188c.03-.219.093-.406.156-.625h3.25a3.725 3.725 0 00-.25-.625h-2.75c.094-.218.219-.406.344-.625h2.093a2.972 2.972 0 00-.469-.625H9.406c.188-.218.375-.406.594-.593-1.031-.97-2.438-1.532-3.969-1.532H6" fill="#e52836"/><path d="M6.063 15.906c1.53 0 2.906-.594 3.968-1.531.219-.188.406-.406.594-.625H9.406a7.21 7.21 0 01-.437-.594h2.094c.124-.187.25-.406.343-.625H8.625a3.725 3.725 0 01-.25-.625h3.25a6.205 6.205 0 00.313-1.875c0-.437-.063-.844-.126-1.25H8.188c.03-.219.093-.406.156-.625h3.25a3.725 3.725 0 00-.25-.625h-2.75c.094-.218.219-.406.344-.625h2.093a2.972 2.972 0 00-.469-.625H9.406c.188-.218.375-.406.594-.593-1.031-.97-2.438-1.532-3.969-1.532H6" fill="#cb2026"/><path d="M8.156 11.5l.094-.531c-.031 0-.094.031-.156.031-.219 0-.25-.125-.219-.188l.188-1.093h.343l.094-.594h-.313l.063-.375h-.625s-.375 2.063-.375 2.313c0 .374.219.53.5.53a.96.96 0 00.406-.093zm.219-1c0 .875.594 1.094 1.094 1.094.469 0 .656-.094.656-.094l.125-.594s-.344.156-.656.156c-.688 0-.563-.5-.563-.5h1.281s.094-.406.094-.562c0-.406-.219-.906-.906-.906-.656-.063-1.125.625-1.125 1.406zm1.094-.906c.344 0 .281.406.281.437h-.688c0-.031.063-.437.407-.437zm3.969 1.906l.124-.688s-.312.157-.53.157c-.438 0-.626-.344-.626-.719 0-.75.375-1.156.813-1.156.312 0 .562.187.562.187l.094-.656s-.375-.156-.719-.156c-.719 0-1.437.625-1.437 1.812 0 .781.375 1.313 1.125 1.313.25 0 .594-.094.594-.094zM4.719 9.031c-.438 0-.75.125-.75.125l-.094.531s.281-.124.688-.124c.218 0 .406.03.406.218 0 .125-.032.156-.032.156h-.28c-.532 0-1.126.22-1.126.938 0 .563.375.688.594.688.438 0 .625-.282.656-.282l-.031.25h.563l.25-1.719c0-.75-.625-.78-.844-.78zm.125 1.406c0 .094-.063.594-.438.594-.187 0-.25-.156-.25-.25 0-.156.094-.375.563-.375a.493.493 0 00.125.031zm1.312 1.126c.157 0 .938.03.938-.813 0-.781-.75-.625-.75-.938 0-.156.125-.218.343-.218.094 0 .438.031.438.031l.094-.563S7 9 6.625 9c-.469 0-.938.188-.938.813 0 .718.782.656.782.937 0 .188-.219.219-.375.219-.282 0-.563-.094-.563-.094l-.093.563c.03.062.187.124.718.124zm12.469-3.032l-.125.844s-.25-.313-.594-.313c-.562 0-1.062.688-1.062 1.5 0 .5.25 1.032.781 1.032.375 0 .594-.25.594-.25l-.032.219h.625l.47-3zm-.281 1.656c0 .344-.157.782-.5.782-.219 0-.344-.188-.344-.5 0-.5.219-.813.5-.813.219 0 .344.156.344.531zM1.313 11.531l.375-2.25.062 2.25h.438L3 9.281l-.344 2.25h.656l.5-3h-1.03l-.626 1.844-.031-1.844h-.906l-.5 3zm9.687 0c.188-1.031.219-1.875.656-1.719.063-.406.156-.562.219-.718h-.125c-.281 0-.5.375-.5.375l.063-.344h-.594l-.406 2.438H11zm3.875-2.5c-.438 0-.75.125-.75.125l-.094.531s.281-.124.688-.124c.219 0 .406.03.406.218 0 .125-.031.156-.031.156h-.281c-.532 0-1.126.22-1.126.938 0 .563.376.688.594.688.438 0 .625-.282.656-.282l-.03.25h.562l.25-1.719c.031-.75-.625-.78-.844-.78zm.156 1.406c0 .094-.062.594-.437.594-.188 0-.25-.156-.25-.25 0-.156.094-.375.562-.375.094.031.094.031.125.031zm1.219 1.094c.188-1.031.219-1.875.656-1.719.063-.406.157-.562.219-.718H17c-.281 0-.5.375-.5.375l.063-.344h-.594l-.406 2.438h.687zm0 0" fill="#fff"/><path d="M7.188 11.063c0 .374.218.53.5.53.218 0 .406-.062.468-.093l.094-.531c-.031 0-.094.031-.156.031-.219 0-.25-.125-.219-.188l.188-1.093h.343l.094-.594h-.313l.063-.375m.438 1.75c0 .875.28 1.094.78 1.094.47 0 .657-.094.657-.094l.125-.594s-.344.156-.656.156c-.688 0-.563-.5-.563-.5h1.281s.094-.406.094-.562c0-.406-.219-.906-.906-.906-.656-.063-.813.625-.813 1.406zm.78-.906c.345 0 .407.406.407.437h-.813c0-.031.063-.437.407-.437zm3.97 1.906l.124-.688s-.312.157-.53.157c-.438 0-.626-.344-.626-.719 0-.75.375-1.156.813-1.156.312 0 .562.187.562.187l.094-.656s-.375-.156-.719-.156c-.719 0-1.125.625-1.125 1.812 0 .781.063 1.313.813 1.313.25 0 .594-.094.594-.094zM3.875 9.719s.281-.125.688-.125c.218 0 .406.031.406.219 0 .124-.032.156-.032.156h-.28c-.532 0-1.126.219-1.126.937 0 .563.375.688.594.688.438 0 .625-.281.656-.281l-.031.25h.563l.25-1.72c0-.718-.625-.75-.875-.75m.468 1.345c0 .093-.375.593-.75.593-.187 0-.25-.156-.25-.25 0-.156.094-.375.563-.375.093.031.437.031.437.031zm.313 1.062s.187.063.718.063c.157 0 .938.03.938-.813 0-.781-.75-.625-.75-.938 0-.156.125-.218.344-.218.093 0 .437.031.437.031l.094-.563S7.031 9 6.656 9c-.468 0-.625.188-.625.813 0 .718.469.656.469.937 0 .188-.219.219-.375.219M18.5 9.375s-.25-.313-.594-.313c-.562 0-.75.688-.75 1.5 0 .5-.062 1.032.469 1.032.375 0 .594-.25.594-.25l-.032.219h.625l.47-3m-.813 1.624c0 .344-.282.782-.625.782-.219 0-.344-.188-.344-.5 0-.5.219-.813.5-.813.219 0 .469.156.469.531zM1.313 11.531l.375-2.25.062 2.25h.438L3 9.281l-.344 2.25h.656l.5-3h-.78l-.876 1.844-.031-1.844h-.344l-1.062 3zm9.031 0H11c.188-1.031.219-1.875.656-1.719.063-.406.156-.562.219-.718h-.125c-.281 0-.5.375-.5.375l.063-.344m2.718.594s.281-.125.688-.125c.219 0 .406.031.406.219 0 .124-.031.156-.031.156h-.281c-.532 0-1.126.219-1.126.937 0 .563.376.688.594.688.438 0 .625-.281.656-.281l-.03.25h.562l.25-1.72c0-.718-.625-.75-.875-.75m.469 1.345c0 .093-.376.593-.75.593-.188 0-.25-.156-.25-.25 0-.156.093-.375.562-.375.125.031.438.031.438.031zm.281 1.093h.656c.188-1.031.219-1.875.656-1.719.063-.406.157-.562.219-.718H17c-.281 0-.5.375-.5.375l.063-.344" fill="#dce5e5"/></svg>