<svg version="1.1" id="Layer_1" xmlns="http://www.w3.org/2000/svg" x="0" y="0" viewBox="0 0 209.2 42.5" xml:space="preserve"><style>.st0{fill:#1a1a1a}</style><path class="st0" d="M0 42.05V7.75h.55l16.23 18.97L32.85 7.75h.55v34.3h-5.04V24.43l.2-4.89c-1.1 1.7-2.11 3.06-3.05 4.09l-8.54 10.29h-.6L7.84 23.63l-3-4.09c.13 2 .2 3.63.2 4.89v17.62H0zm90.82-10.48l7.19 10.49h-6.09l-6.09-8.94c-1.27.13-2.21.2-2.85.2h-3.2v8.74h-5.29V8.1h8.49c4.66 0 8.26 1.13 10.81 3.4 2.55 2.26 3.82 5.36 3.82 9.29 0 5.19-2.26 8.78-6.79 10.78zm-11.03-2.8h3c6.29 0 9.44-2.66 9.44-7.99 0-5.36-3.15-8.04-9.44-8.04h-3v16.03z"/><path d="M120.58 42.5c-4.89 0-9.02-1.65-12.38-4.94-3.36-3.3-5.04-7.46-5.04-12.48 0-4.99 1.68-9.14 5.04-12.43 3.36-3.3 7.49-4.94 12.38-4.94 6.06 0 10.59 2.25 13.58 6.74l-4.04 2.9c-2.1-3.26-5.28-4.89-9.54-4.89-3.5 0-6.37 1.2-8.64 3.59-2.26 2.4-3.4 5.41-3.4 9.04 0 3.63 1.13 6.65 3.4 9.06 2.26 2.41 5.14 3.62 8.64 3.62 4.29 0 7.64-1.78 10.04-5.34l4.04 2.85c-3.16 4.81-7.86 7.22-14.08 7.22zm20.07-.45V8.1h5.29v15.27h16.33V8.1h5.29v33.95h-5.29V28.07h-16.33v13.98h-5.29zm51.08.45c-4.93 0-9.08-1.65-12.46-4.94-3.38-3.3-5.07-7.46-5.07-12.48 0-5.03 1.69-9.19 5.07-12.48 3.38-3.3 7.53-4.94 12.46-4.94 4.89 0 9.03 1.65 12.41 4.94 3.38 3.29 5.07 7.46 5.07 12.48 0 5.03-1.69 9.19-5.07 12.48-3.39 3.3-7.52 4.94-12.41 4.94zm-8.72-8.36c2.28 2.41 5.18 3.62 8.71 3.62 3.53 0 6.42-1.21 8.69-3.62 2.26-2.41 3.4-5.43 3.4-9.06 0-3.63-1.13-6.65-3.4-9.06-2.26-2.41-5.16-3.62-8.69-3.62-3.53 0-6.43 1.21-8.71 3.62-2.28 2.41-3.42 5.43-3.42 9.06 0 3.63 1.14 6.65 3.42 9.06z" fill="#fe3e57"/><path class="st0" d="M54.07 7.75h-.6l-14.53 34.3h5.1l9.63-24.86 9.79 24.86h5.49z"/></svg>